%TF.GenerationSoftware,KiCad,Pcbnew,(6.0.7)*%
%TF.CreationDate,2022-10-06T16:10:22+02:00*%
%TF.ProjectId,mobo,6d6f626f-2e6b-4696-9361-645f70636258,4A*%
%TF.SameCoordinates,Original*%
%TF.FileFunction,Profile,NP*%
%FSLAX46Y46*%
G04 Gerber Fmt 4.6, Leading zero omitted, Abs format (unit mm)*
G04 Created by KiCad (PCBNEW (6.0.7)) date 2022-10-06 16:10:22*
%MOMM*%
%LPD*%
G01*
G04 APERTURE LIST*
%TA.AperFunction,Profile*%
%ADD10C,0.050000*%
%TD*%
G04 APERTURE END LIST*
D10*
X159000000Y-41000000D02*
X64000000Y-41000000D01*
X64000000Y-41000000D02*
G75*
G03*
X59000000Y-46000000I0J-5000000D01*
G01*
X164000000Y-46000000D02*
G75*
G03*
X159000000Y-41000000I-5000000J0D01*
G01*
X164000000Y-141000000D02*
X164000000Y-46000000D01*
X67000000Y-83999999D02*
G75*
G03*
X63102634Y-83367543I-2000000J-1D01*
G01*
X65486834Y-93937609D02*
G75*
G03*
X63104404Y-91364887I-485034J1940309D01*
G01*
X59000000Y-91897344D02*
X59000000Y-88000000D01*
X63102634Y-83367543D02*
X59600000Y-84300000D01*
X65485069Y-85940284D02*
X59000000Y-88000000D01*
X63102634Y-75367544D02*
X59600000Y-76300000D01*
X63104404Y-91364887D02*
X59600000Y-92297343D01*
X67000000Y-76000000D02*
G75*
G03*
X63102634Y-75367544I-2000000J0D01*
G01*
X58999962Y-91897346D02*
G75*
G03*
X59600000Y-92297343I445638J18446D01*
G01*
X65485071Y-77940285D02*
G75*
G03*
X67000000Y-76000000I-485071J1940285D01*
G01*
X59000000Y-75900000D02*
G75*
G03*
X59600000Y-76300000I443400J15100D01*
G01*
X65485069Y-85940284D02*
G75*
G03*
X66999998Y-83999999I-485069J1940284D01*
G01*
X64000000Y-146000000D02*
X159000000Y-146000000D01*
X59000000Y-95997344D02*
X59000000Y-141000000D01*
X65485071Y-77940285D02*
X59000000Y-80000000D01*
X59000000Y-141000000D02*
G75*
G03*
X64000000Y-146000000I5000000J0D01*
G01*
X65486839Y-93937628D02*
X59000000Y-95997344D01*
X59000000Y-75900000D02*
X59000000Y-46000000D01*
X59000001Y-83900000D02*
G75*
G03*
X59600000Y-84299999I445599J18400D01*
G01*
X59000000Y-80000000D02*
X59000000Y-83900000D01*
X159000000Y-146000000D02*
G75*
G03*
X164000000Y-141000000I0J5000000D01*
G01*
M02*
