M48
; DRILL file {KiCad (6.0.7)} date Thu Oct  6 16:10:47 2022
; FORMAT={-:-/ absolute / metric / decimal}
; #@! TF.CreationDate,2022-10-06T16:10:47+02:00
; #@! TF.GenerationSoftware,Kicad,Pcbnew,(6.0.7)
; #@! TF.FileFunction,Plated,1,4,PTH
FMAT,2
METRIC
; #@! TA.AperFunction,Plated,PTH,ViaDrill
T1C0.300
; #@! TA.AperFunction,Plated,PTH,ViaDrill
T2C0.400
; #@! TA.AperFunction,Plated,PTH,ComponentDrill
T3C0.560
; #@! TA.AperFunction,Plated,PTH,ComponentDrill
T4C0.800
; #@! TA.AperFunction,Plated,PTH,ComponentDrill
T5C0.950
; #@! TA.AperFunction,Plated,PTH,ComponentDrill
T6C1.000
; #@! TA.AperFunction,Plated,PTH,ComponentDrill
T7C1.200
; #@! TA.AperFunction,Plated,PTH,ComponentDrill
T8C1.700
; #@! TA.AperFunction,Plated,PTH,ComponentDrill
T9C2.300
; #@! TA.AperFunction,Plated,PTH,ComponentDrill
T10C3.200
%
G90
G05
T1
X63.94Y-65.6
X66.9Y-65.5
X71.407Y-66.6
X71.5Y-88.5
X71.6Y-104.9
X73.8Y-97.72
X74.1Y-65.4
X74.2Y-62.0
X75.1Y-95.4
X78.0Y-122.4
X78.8Y-119.3
X79.9Y-128.25
X79.9Y-130.2
X80.1Y-67.3
X80.6Y-97.72
X80.6Y-108.72
X81.4Y-92.4
X81.9Y-94.7
X82.2Y-93.4
X83.7Y-86.2
X84.5Y-91.7
X84.787Y-131.4
X84.94Y-64.9
X86.0Y-85.5
X86.5Y-63.42
X87.2Y-81.6
X87.2Y-84.1
X87.5Y-97.62
X88.3Y-131.4
X89.1Y-87.7
X89.361Y-82.83
X89.5Y-90.2
X92.235Y-65.434
X92.337Y-123.5
X94.0Y-130.6
X95.2Y-60.82
X95.3Y-63.4
X95.7Y-120.7
X95.7Y-128.8
X95.892Y-133.9
X96.8Y-100.7
X97.5Y-66.12
X98.0Y-104.7
X98.4Y-90.5
X98.4Y-98.7
X98.5Y-116.9
X98.5Y-118.8
X98.9Y-108.4
X99.494Y-133.946
X99.724Y-125.041
X99.9Y-114.2
X100.363Y-121.6
X100.4Y-102.8
X101.3Y-97.7
X101.9Y-116.3
X102.1Y-96.6
X103.1Y-113.4
X103.3Y-99.52
X103.6Y-112.6
X103.9Y-93.5
X104.6Y-118.1
X105.05Y-100.07
X105.233Y-97.215
X105.36Y-94.93
X105.93Y-64.74
X106.0Y-119.0
X106.4Y-89.4
X106.5Y-105.2
X106.8Y-101.5
X107.0Y-103.8
X107.0Y-119.0
X107.1Y-102.9
X107.1Y-112.1
X107.2Y-105.9
X107.9Y-64.25
X108.0Y-119.0
X108.1Y-88.6
X108.1Y-96.4
X108.1Y-97.6
X108.6Y-101.5
X108.6Y-107.6
X108.8Y-102.7
X109.0Y-118.1
X109.4Y-66.4
X109.4Y-106.0
X109.6Y-96.0
X109.8Y-117.5
X109.9Y-93.6
X110.2Y-104.1
X110.2Y-105.2
X110.6Y-118.5
X111.0Y-94.2
X111.2Y-112.1
X111.4Y-101.9
X111.65Y-121.3
X112.5Y-117.5
X112.6Y-109.6
X112.6Y-121.8
X112.8Y-107.3
X113.0Y-89.5
X113.0Y-93.8
X113.0Y-101.0
X113.4Y-121.1
X113.6Y-106.3
X113.68Y-65.42
X114.6Y-100.9
X114.65Y-120.15
X114.65Y-121.15
X115.1Y-107.0
X115.7Y-97.2
X115.7Y-122.9
X115.8Y-84.1
X116.0Y-111.6
X116.1Y-95.7
X116.2Y-60.82
X116.3Y-65.75
X116.4Y-63.6
X116.4Y-110.7
X116.4Y-112.5
X116.5Y-88.1
X116.5Y-97.8
X116.5Y-120.5
X116.6Y-122.1
X117.3Y-108.9
X117.5Y-112.5
X117.8Y-94.0
X117.9Y-87.3
X117.9Y-90.169
X118.1Y-105.7
X118.3Y-115.9
X118.4Y-101.9
X118.4Y-103.1
X118.4Y-109.9
X118.6Y-112.5
X118.8Y-97.8
X119.1Y-78.0
X119.1Y-108.4
X119.875Y-94.0
X120.1Y-89.1
X120.7Y-98.1
X120.9Y-117.2
X121.2Y-90.2
X121.5Y-98.1
X122.0Y-94.0
X122.006Y-118.727
X122.3Y-103.4
X122.5Y-130.0
X122.8Y-98.8
X123.0Y-100.8
X123.2Y-108.0
X123.2Y-111.8
X123.6Y-84.7
X123.6Y-118.7
X125.3Y-87.3
X125.3Y-129.6
X125.4Y-110.7
X125.5Y-115.0
X126.19Y-65.22
X126.7Y-89.2
X127.3Y-103.7
X128.0Y-124.6
X128.0Y-132.2
X128.2Y-107.1
X128.2Y-116.2
X129.0Y-64.2
X129.1Y-107.5
X129.7Y-89.6
X130.3Y-108.9
X131.2Y-86.6
X131.3Y-115.4
X131.9Y-109.8
X132.6Y-115.4
X133.5Y-109.0
X133.9Y-111.7
X133.9Y-115.4
X134.115Y-89.5
X134.2Y-63.6
X134.505Y-65.414
X136.0Y-109.5
X136.0Y-124.6
X136.0Y-128.1
X136.0Y-131.5
X136.5Y-115.4
X136.7Y-88.2
X137.0Y-109.4
X137.1Y-85.0
X137.2Y-60.7
X137.2Y-106.8
X137.3Y-63.3
X138.3Y-86.6
X138.8Y-70.5
X138.85Y-84.0
X139.3Y-111.7
X139.3Y-113.5
X140.6Y-119.5
X140.8Y-85.1
X141.4Y-70.5
X142.0Y-109.6
X142.9Y-115.1
X148.0Y-91.25
X148.0Y-97.2
X148.2Y-86.7
X150.48Y-94.5
X151.4Y-101.3
X153.7Y-86.5
X153.8Y-93.1
T2
X61.1Y-46.3
X61.1Y-136.3
X62.2Y-45.0
X62.2Y-135.0
X64.75Y-58.85
X65.85Y-58.85
X66.95Y-58.85
X67.65Y-60.5
X68.5Y-51.8
X68.6Y-107.6
X68.6Y-108.6
X68.6Y-109.6
X70.7Y-112.8
X70.7Y-115.1
X70.7Y-117.2
X72.0Y-126.1
X72.45Y-60.5
X73.8Y-51.8
X74.2Y-121.95
X75.0Y-132.8
X75.7Y-51.8
X75.7Y-127.2
X76.7Y-127.2
X76.9Y-137.1
X77.7Y-127.2
X77.95Y-134.1
X78.4Y-128.5
X78.4Y-130.5
X79.5Y-122.9
X80.5Y-122.9
X81.0Y-51.8
X81.8Y-125.0
X83.8Y-125.0
X84.65Y-127.6
X84.96Y-51.794
X85.3Y-76.7
X85.3Y-78.6
X85.75Y-57.65
X86.7Y-75.6
X86.85Y-57.65
X87.95Y-57.65
X88.1Y-76.7
X88.1Y-78.6
X88.55Y-59.35
X88.76Y-51.794
X90.05Y-131.4
X90.76Y-51.794
X90.9Y-137.0
X91.0Y-81.3
X91.425Y-126.3
X91.95Y-134.1
X92.3Y-127.6
X93.45Y-59.35
X93.5Y-81.3
X94.56Y-51.794
X96.0Y-81.3
X98.0Y-120.5
X98.0Y-128.9
X98.5Y-81.3
X101.7Y-73.6
X101.7Y-75.3
X102.7Y-73.6
X102.7Y-75.3
X106.4Y-81.42
X106.75Y-57.6
X107.5Y-81.42
X107.85Y-57.6
X108.6Y-81.42
X108.95Y-57.6
X109.55Y-83.1
X109.65Y-59.3
X109.82Y-51.8
X113.4Y-51.8
X114.05Y-83.1
X114.5Y-59.3
X115.075Y-72.6
X115.1Y-51.8
X115.1Y-74.6
X115.1Y-76.2
X115.175Y-70.6
X119.0Y-51.8
X126.3Y-51.8
X127.1Y-96.5
X127.1Y-98.6
X127.1Y-100.7
X127.2Y-102.8
X127.2Y-141.2
X127.3Y-94.5
X127.5Y-81.42
X128.3Y-94.5
X128.5Y-99.0
X128.6Y-81.42
X128.8Y-57.65
X129.7Y-81.42
X129.8Y-105.0
X129.9Y-51.8
X129.9Y-57.65
X130.0Y-101.3
X130.0Y-102.4
X130.75Y-83.1
X131.0Y-57.65
X131.5Y-100.2
X131.5Y-103.6
X131.7Y-59.3
X131.8Y-51.8
X132.3Y-97.3
X132.3Y-98.5
X132.4Y-139.2
X133.7Y-138.2
X133.8Y-97.3
X133.8Y-98.5
X133.8Y-103.6
X133.8Y-104.7
X134.9Y-103.6
X134.9Y-104.7
X135.0Y-71.8
X135.0Y-72.7
X135.15Y-83.1
X135.3Y-97.3
X135.3Y-98.5
X135.4Y-51.8
X135.6Y-57.65
X136.55Y-59.3
X136.6Y-71.8
X136.6Y-72.7
X136.7Y-57.65
X137.8Y-57.65
X138.3Y-106.4
X139.5Y-105.0
X139.8Y-97.7
X140.2Y-141.2
X141.2Y-101.6
X141.2Y-102.8
X142.05Y-60.85
X142.05Y-61.95
X142.05Y-63.05
X142.2Y-97.35
X143.2Y-97.35
X143.4Y-93.15
X144.2Y-97.35
X144.7Y-63.3
X145.3Y-139.2
X146.6Y-67.2
X146.6Y-138.2
X146.7Y-107.8
X146.7Y-116.3
X146.7Y-124.7
X146.7Y-133.1
X147.0Y-143.3
X147.1Y-82.7
X147.1Y-83.9
X147.1Y-85.1
X148.1Y-82.7
X148.1Y-83.9
X148.1Y-85.1
X148.1Y-144.6
X148.195Y-79.905
X148.2Y-77.1
X148.2Y-78.5
X148.5Y-107.8
X148.5Y-116.3
X148.5Y-124.7
X148.5Y-133.1
X149.5Y-107.8
X149.5Y-116.3
X149.5Y-124.7
X149.5Y-133.1
X149.8Y-90.0
X149.8Y-91.2
X151.0Y-77.1
X151.0Y-78.5
X151.0Y-79.9
X151.1Y-90.0
X151.1Y-91.2
X151.75Y-94.8
X152.382Y-90.0
X152.382Y-91.2
X152.7Y-44.4
X152.7Y-107.4
X152.7Y-109.8
X152.7Y-115.9
X152.7Y-118.3
X152.7Y-124.3
X152.7Y-126.7
X152.7Y-132.6
X152.7Y-135.0
X153.2Y-76.7
X154.0Y-43.3
X154.3Y-75.4
X157.715Y-87.198
X158.4Y-81.8
X159.4Y-83.2
X159.4Y-89.2
X159.5Y-85.4
X160.4Y-89.9
X161.2Y-76.7
X161.2Y-78.9
X162.3Y-89.9
X162.6Y-79.4
X162.8Y-96.8
X162.8Y-98.4
X162.9Y-100.2
X162.9Y-102.8
T3
X71.6Y-136.36
X71.6Y-138.9
X71.6Y-141.44
X82.4Y-136.36
X82.4Y-138.9
X82.4Y-141.44
X85.6Y-136.36
X85.6Y-138.9
X85.6Y-141.44
X96.4Y-136.36
X96.4Y-138.9
X96.4Y-141.44
T4
X60.79Y-56.28
X60.79Y-68.98
X63.33Y-56.28
X63.33Y-68.98
X65.87Y-56.28
X65.87Y-68.98
X68.41Y-56.28
X68.41Y-68.98
X70.95Y-56.28
X70.95Y-68.98
X73.49Y-56.28
X73.49Y-68.98
X76.03Y-56.28
X76.03Y-68.98
X78.57Y-56.28
X78.57Y-68.98
X81.79Y-55.1
X81.79Y-67.8
X84.33Y-55.1
X84.33Y-67.8
X86.87Y-55.1
X86.87Y-67.8
X89.41Y-55.1
X89.41Y-67.8
X91.95Y-55.1
X91.95Y-67.8
X94.49Y-55.1
X94.49Y-67.8
X97.03Y-55.1
X97.03Y-67.8
X99.57Y-55.1
X99.57Y-67.8
X102.62Y-79.25
X102.62Y-91.95
X102.78Y-55.1
X102.78Y-67.8
X105.16Y-79.25
X105.16Y-91.95
X105.32Y-55.1
X105.32Y-67.8
X107.7Y-79.25
X107.7Y-91.95
X107.86Y-55.1
X107.86Y-67.8
X110.24Y-79.25
X110.24Y-91.95
X110.4Y-55.1
X110.4Y-67.8
X112.78Y-79.25
X112.78Y-91.95
X112.94Y-55.1
X112.94Y-67.8
X115.32Y-79.25
X115.32Y-91.95
X115.48Y-55.1
X115.48Y-67.8
X117.86Y-79.25
X117.86Y-91.95
X118.02Y-55.1
X118.02Y-67.8
X120.4Y-79.25
X120.4Y-91.95
X120.56Y-55.1
X120.56Y-67.8
X123.6Y-79.2
X123.6Y-91.9
X123.78Y-55.1
X123.78Y-67.8
X126.14Y-79.2
X126.14Y-91.9
X126.32Y-55.1
X126.32Y-67.8
X128.68Y-79.2
X128.68Y-91.9
X128.86Y-55.1
X128.86Y-67.8
X131.22Y-79.2
X131.22Y-91.9
X131.4Y-55.1
X131.4Y-67.8
X133.76Y-79.2
X133.76Y-91.9
X133.94Y-55.1
X133.94Y-67.8
X136.3Y-79.2
X136.3Y-91.9
X136.48Y-55.1
X136.48Y-67.8
X138.84Y-79.2
X138.84Y-91.9
X139.02Y-55.1
X139.02Y-67.8
X141.38Y-79.2
X141.38Y-91.9
X141.56Y-55.1
X141.56Y-67.8
T5
X66.813Y-123.868
X66.813Y-126.368
X68.813Y-123.868
X68.813Y-126.368
X70.274Y-44.906
X70.775Y-95.2
X70.775Y-97.7
X70.775Y-100.2
X70.835Y-79.02
X70.835Y-81.52
X70.835Y-84.02
X72.774Y-44.906
X75.274Y-44.906
X77.69Y-106.25
X77.69Y-108.75
X77.69Y-111.25
X77.72Y-95.15
X77.72Y-97.65
X77.72Y-100.15
X77.774Y-44.906
X84.3Y-44.9
X84.56Y-95.15
X84.56Y-97.65
X84.56Y-100.15
X84.56Y-106.21
X84.56Y-108.71
X84.56Y-111.21
X86.8Y-44.9
X89.3Y-44.9
X91.0Y-73.582
X91.42Y-95.1
X91.42Y-97.6
X91.42Y-100.1
X91.45Y-106.2
X91.45Y-108.7
X91.45Y-111.2
X91.8Y-44.9
X93.5Y-73.582
X96.0Y-73.582
X98.295Y-44.9
X98.5Y-73.582
X100.795Y-44.9
X103.295Y-44.9
X105.795Y-44.9
X112.4Y-44.906
X114.9Y-44.906
X117.4Y-44.906
X119.9Y-44.906
X122.1Y-72.575
X124.6Y-72.575
X124.73Y-139.26
X126.7Y-44.9
X127.1Y-72.575
X127.23Y-139.26
X129.2Y-44.9
X129.6Y-72.575
X129.73Y-139.26
X131.7Y-44.9
X134.2Y-44.9
X137.73Y-139.27
X140.23Y-139.27
X140.75Y-44.903
X142.73Y-139.27
X143.25Y-44.903
X145.75Y-44.903
X148.25Y-44.903
T6
X60.79Y-63.9
X60.79Y-66.44
X79.4Y-76.34
X79.4Y-78.88
X79.4Y-81.42
X81.79Y-62.72
X81.79Y-65.26
X81.94Y-76.34
X81.94Y-78.88
X81.94Y-81.42
X85.08Y-118.1
X87.62Y-118.1
X90.16Y-118.1
X92.7Y-118.1
X102.62Y-86.82
X102.62Y-89.36
X102.78Y-62.72
X102.78Y-65.26
X104.36Y-124.81
X104.36Y-127.35
X104.36Y-129.89
X104.36Y-132.43
X104.36Y-134.97
X104.36Y-137.51
X106.9Y-124.81
X106.9Y-127.35
X106.9Y-129.89
X106.9Y-132.43
X106.9Y-134.97
X106.9Y-137.51
X114.42Y-124.81
X114.42Y-127.35
X114.42Y-129.89
X114.42Y-132.43
X114.42Y-134.97
X114.42Y-137.51
X116.96Y-124.81
X116.96Y-127.35
X116.96Y-129.89
X116.96Y-132.43
X116.96Y-134.97
X116.96Y-137.51
X123.6Y-86.82
X123.6Y-89.36
X123.78Y-62.72
X123.78Y-65.26
X141.2Y-130.435
X141.2Y-132.975
X157.14Y-122.76
X157.14Y-125.26
X157.15Y-131.18
X157.15Y-133.68
X157.17Y-114.29
X157.17Y-116.79
X157.22Y-105.86
X157.22Y-108.36
T7
X152.3Y-59.636
X152.3Y-64.636
T8
X149.7Y-69.575
X149.7Y-72.975
X159.62Y-69.575
X159.62Y-72.975
T9
X63.953Y-119.118
X63.953Y-131.118
T10
X64.0Y-51.0
X64.0Y-141.0
X154.0Y-51.0
X154.0Y-141.0
T6
G00X146.4Y-60.636
M15
G01X146.4Y-58.636
M16
G05
G00X150.2Y-54.936
M15
G01X148.2Y-54.936
M16
G05
G00X152.3Y-60.636
M15
G01X152.3Y-58.636
M16
G05
T0
M30
