%TF.GenerationSoftware,KiCad,Pcbnew,(6.0.7)*%
%TF.CreationDate,2022-10-06T16:10:52+02:00*%
%TF.ProjectId,mobo,6d6f626f-2e6b-4696-9361-645f70636258,4A*%
%TF.SameCoordinates,Original*%
%TF.FileFunction,Drillmap*%
%TF.FilePolarity,Positive*%
%FSLAX45Y45*%
G04 Gerber Fmt 4.5, Leading zero omitted, Abs format (unit mm)*
G04 Created by KiCad (PCBNEW (6.0.7)) date 2022-10-06 16:10:52*
%MOMM*%
%LPD*%
G01*
G04 APERTURE LIST*
%ADD10C,0.050000*%
%ADD11C,0.200000*%
%ADD12C,0.110000*%
G04 APERTURE END LIST*
D10*
X15900000Y-4100000D02*
X6400000Y-4100000D01*
X6400000Y-4100000D02*
G75*
G03*
X5900000Y-4600000I0J-500000D01*
G01*
X16400000Y-4600000D02*
G75*
G03*
X15900000Y-4100000I-500000J0D01*
G01*
X16400000Y-14100000D02*
X16400000Y-4600000D01*
X6700000Y-8400000D02*
G75*
G03*
X6310263Y-8336754I-200000J0D01*
G01*
X6548683Y-9393761D02*
G75*
G03*
X6310440Y-9136489I-48503J194031D01*
G01*
X5900000Y-9189734D02*
X5900000Y-8800000D01*
X6310263Y-8336754D02*
X5960000Y-8430000D01*
X6548507Y-8594028D02*
X5900000Y-8800000D01*
X6310263Y-7536754D02*
X5960000Y-7630000D01*
X6310440Y-9136489D02*
X5960000Y-9229734D01*
X6700000Y-7600000D02*
G75*
G03*
X6310263Y-7536754I-200000J0D01*
G01*
X5899996Y-9189735D02*
G75*
G03*
X5960000Y-9229734I44564J1845D01*
G01*
X6548507Y-7794028D02*
G75*
G03*
X6700000Y-7600000I-48507J194029D01*
G01*
X5900000Y-7590000D02*
G75*
G03*
X5960000Y-7630000I44340J1510D01*
G01*
X6548507Y-8594028D02*
G75*
G03*
X6700000Y-8400000I-48507J194028D01*
G01*
X6400000Y-14600000D02*
X15900000Y-14600000D01*
X5900000Y-9599734D02*
X5900000Y-14100000D01*
X6548507Y-7794028D02*
X5900000Y-8000000D01*
X5900000Y-14100000D02*
G75*
G03*
X6400000Y-14600000I500000J0D01*
G01*
X6548684Y-9393763D02*
X5900000Y-9599734D01*
X5900000Y-7590000D02*
X5900000Y-4600000D01*
X5900000Y-8390000D02*
G75*
G03*
X5960000Y-8430000I44560J1840D01*
G01*
X5900000Y-8000000D02*
X5900000Y-8390000D01*
X15900000Y-14600000D02*
G75*
G03*
X16400000Y-14100000I0J500000D01*
G01*
D11*
D12*
X7745000Y-13855000D02*
X7855000Y-13965000D01*
X7855000Y-13855000D02*
X7745000Y-13965000D01*
X9145000Y-13855000D02*
X9255000Y-13965000D01*
X9255000Y-13855000D02*
X9145000Y-13965000D01*
D11*
X6155119Y-14912976D02*
X6155119Y-14712976D01*
X6202738Y-14712976D01*
X6231309Y-14722500D01*
X6250357Y-14741548D01*
X6259881Y-14760595D01*
X6269405Y-14798690D01*
X6269405Y-14827262D01*
X6259881Y-14865357D01*
X6250357Y-14884405D01*
X6231309Y-14903452D01*
X6202738Y-14912976D01*
X6155119Y-14912976D01*
X6355119Y-14912976D02*
X6355119Y-14779643D01*
X6355119Y-14817738D02*
X6364643Y-14798690D01*
X6374167Y-14789167D01*
X6393214Y-14779643D01*
X6412262Y-14779643D01*
X6478928Y-14912976D02*
X6478928Y-14779643D01*
X6478928Y-14712976D02*
X6469405Y-14722500D01*
X6478928Y-14732024D01*
X6488452Y-14722500D01*
X6478928Y-14712976D01*
X6478928Y-14732024D01*
X6602738Y-14912976D02*
X6583690Y-14903452D01*
X6574167Y-14884405D01*
X6574167Y-14712976D01*
X6707500Y-14912976D02*
X6688452Y-14903452D01*
X6678928Y-14884405D01*
X6678928Y-14712976D01*
X6936071Y-14912976D02*
X6936071Y-14712976D01*
X7002738Y-14855833D01*
X7069405Y-14712976D01*
X7069405Y-14912976D01*
X7250357Y-14912976D02*
X7250357Y-14808214D01*
X7240833Y-14789167D01*
X7221786Y-14779643D01*
X7183690Y-14779643D01*
X7164643Y-14789167D01*
X7250357Y-14903452D02*
X7231309Y-14912976D01*
X7183690Y-14912976D01*
X7164643Y-14903452D01*
X7155119Y-14884405D01*
X7155119Y-14865357D01*
X7164643Y-14846309D01*
X7183690Y-14836786D01*
X7231309Y-14836786D01*
X7250357Y-14827262D01*
X7345595Y-14779643D02*
X7345595Y-14979643D01*
X7345595Y-14789167D02*
X7364643Y-14779643D01*
X7402738Y-14779643D01*
X7421786Y-14789167D01*
X7431309Y-14798690D01*
X7440833Y-14817738D01*
X7440833Y-14874881D01*
X7431309Y-14893928D01*
X7421786Y-14903452D01*
X7402738Y-14912976D01*
X7364643Y-14912976D01*
X7345595Y-14903452D01*
X7526548Y-14893928D02*
X7536071Y-14903452D01*
X7526548Y-14912976D01*
X7517024Y-14903452D01*
X7526548Y-14893928D01*
X7526548Y-14912976D01*
X7526548Y-14789167D02*
X7536071Y-14798690D01*
X7526548Y-14808214D01*
X7517024Y-14798690D01*
X7526548Y-14789167D01*
X7526548Y-14808214D01*
D12*
X5787500Y-15187500D02*
X5897500Y-15297500D01*
X5897500Y-15187500D02*
X5787500Y-15297500D01*
D11*
X6259881Y-15332976D02*
X6145595Y-15332976D01*
X6202738Y-15332976D02*
X6202738Y-15132976D01*
X6183690Y-15161548D01*
X6164643Y-15180595D01*
X6145595Y-15190119D01*
X6345595Y-15313928D02*
X6355119Y-15323452D01*
X6345595Y-15332976D01*
X6336071Y-15323452D01*
X6345595Y-15313928D01*
X6345595Y-15332976D01*
X6545595Y-15332976D02*
X6431309Y-15332976D01*
X6488452Y-15332976D02*
X6488452Y-15132976D01*
X6469405Y-15161548D01*
X6450357Y-15180595D01*
X6431309Y-15190119D01*
X6669405Y-15132976D02*
X6688452Y-15132976D01*
X6707500Y-15142500D01*
X6717024Y-15152024D01*
X6726548Y-15171071D01*
X6736071Y-15209167D01*
X6736071Y-15256786D01*
X6726548Y-15294881D01*
X6717024Y-15313928D01*
X6707500Y-15323452D01*
X6688452Y-15332976D01*
X6669405Y-15332976D01*
X6650357Y-15323452D01*
X6640833Y-15313928D01*
X6631309Y-15294881D01*
X6621786Y-15256786D01*
X6621786Y-15209167D01*
X6631309Y-15171071D01*
X6640833Y-15152024D01*
X6650357Y-15142500D01*
X6669405Y-15132976D01*
X6859881Y-15132976D02*
X6878928Y-15132976D01*
X6897976Y-15142500D01*
X6907500Y-15152024D01*
X6917024Y-15171071D01*
X6926548Y-15209167D01*
X6926548Y-15256786D01*
X6917024Y-15294881D01*
X6907500Y-15313928D01*
X6897976Y-15323452D01*
X6878928Y-15332976D01*
X6859881Y-15332976D01*
X6840833Y-15323452D01*
X6831309Y-15313928D01*
X6821786Y-15294881D01*
X6812262Y-15256786D01*
X6812262Y-15209167D01*
X6821786Y-15171071D01*
X6831309Y-15152024D01*
X6840833Y-15142500D01*
X6859881Y-15132976D01*
X7012262Y-15332976D02*
X7012262Y-15199643D01*
X7012262Y-15218690D02*
X7021786Y-15209167D01*
X7040833Y-15199643D01*
X7069405Y-15199643D01*
X7088452Y-15209167D01*
X7097976Y-15228214D01*
X7097976Y-15332976D01*
X7097976Y-15228214D02*
X7107500Y-15209167D01*
X7126548Y-15199643D01*
X7155119Y-15199643D01*
X7174167Y-15209167D01*
X7183690Y-15228214D01*
X7183690Y-15332976D01*
X7278928Y-15332976D02*
X7278928Y-15199643D01*
X7278928Y-15218690D02*
X7288452Y-15209167D01*
X7307500Y-15199643D01*
X7336071Y-15199643D01*
X7355119Y-15209167D01*
X7364643Y-15228214D01*
X7364643Y-15332976D01*
X7364643Y-15228214D02*
X7374167Y-15209167D01*
X7393214Y-15199643D01*
X7421786Y-15199643D01*
X7440833Y-15209167D01*
X7450357Y-15228214D01*
X7450357Y-15332976D01*
X7840833Y-15123452D02*
X7669405Y-15380595D01*
X8097976Y-15132976D02*
X8117024Y-15132976D01*
X8136071Y-15142500D01*
X8145595Y-15152024D01*
X8155119Y-15171071D01*
X8164643Y-15209167D01*
X8164643Y-15256786D01*
X8155119Y-15294881D01*
X8145595Y-15313928D01*
X8136071Y-15323452D01*
X8117024Y-15332976D01*
X8097976Y-15332976D01*
X8078928Y-15323452D01*
X8069405Y-15313928D01*
X8059881Y-15294881D01*
X8050357Y-15256786D01*
X8050357Y-15209167D01*
X8059881Y-15171071D01*
X8069405Y-15152024D01*
X8078928Y-15142500D01*
X8097976Y-15132976D01*
X8250357Y-15313928D02*
X8259881Y-15323452D01*
X8250357Y-15332976D01*
X8240833Y-15323452D01*
X8250357Y-15313928D01*
X8250357Y-15332976D01*
X8383690Y-15132976D02*
X8402738Y-15132976D01*
X8421786Y-15142500D01*
X8431310Y-15152024D01*
X8440833Y-15171071D01*
X8450357Y-15209167D01*
X8450357Y-15256786D01*
X8440833Y-15294881D01*
X8431310Y-15313928D01*
X8421786Y-15323452D01*
X8402738Y-15332976D01*
X8383690Y-15332976D01*
X8364643Y-15323452D01*
X8355119Y-15313928D01*
X8345595Y-15294881D01*
X8336071Y-15256786D01*
X8336071Y-15209167D01*
X8345595Y-15171071D01*
X8355119Y-15152024D01*
X8364643Y-15142500D01*
X8383690Y-15132976D01*
X8621786Y-15199643D02*
X8621786Y-15332976D01*
X8574167Y-15123452D02*
X8526548Y-15266309D01*
X8650357Y-15266309D01*
X8707500Y-15132976D02*
X8831310Y-15132976D01*
X8764643Y-15209167D01*
X8793214Y-15209167D01*
X8812262Y-15218690D01*
X8821786Y-15228214D01*
X8831310Y-15247262D01*
X8831310Y-15294881D01*
X8821786Y-15313928D01*
X8812262Y-15323452D01*
X8793214Y-15332976D01*
X8736071Y-15332976D01*
X8717024Y-15323452D01*
X8707500Y-15313928D01*
X8897976Y-15132976D02*
X9021786Y-15132976D01*
X8955119Y-15209167D01*
X8983690Y-15209167D01*
X9002738Y-15218690D01*
X9012262Y-15228214D01*
X9021786Y-15247262D01*
X9021786Y-15294881D01*
X9012262Y-15313928D01*
X9002738Y-15323452D01*
X8983690Y-15332976D01*
X8926548Y-15332976D01*
X8907500Y-15323452D01*
X8897976Y-15313928D01*
X9097976Y-15132976D02*
X9097976Y-15171071D01*
X9174167Y-15132976D02*
X9174167Y-15171071D01*
X9469405Y-15409167D02*
X9459881Y-15399643D01*
X9440833Y-15371071D01*
X9431310Y-15352024D01*
X9421786Y-15323452D01*
X9412262Y-15275833D01*
X9412262Y-15237738D01*
X9421786Y-15190119D01*
X9431310Y-15161548D01*
X9440833Y-15142500D01*
X9459881Y-15113928D01*
X9469405Y-15104405D01*
X9536071Y-15152024D02*
X9545595Y-15142500D01*
X9564643Y-15132976D01*
X9612262Y-15132976D01*
X9631310Y-15142500D01*
X9640833Y-15152024D01*
X9650357Y-15171071D01*
X9650357Y-15190119D01*
X9640833Y-15218690D01*
X9526548Y-15332976D01*
X9650357Y-15332976D01*
X9888452Y-15332976D02*
X9888452Y-15132976D01*
X9974167Y-15332976D02*
X9974167Y-15228214D01*
X9964643Y-15209167D01*
X9945595Y-15199643D01*
X9917024Y-15199643D01*
X9897976Y-15209167D01*
X9888452Y-15218690D01*
X10097976Y-15332976D02*
X10078929Y-15323452D01*
X10069405Y-15313928D01*
X10059881Y-15294881D01*
X10059881Y-15237738D01*
X10069405Y-15218690D01*
X10078929Y-15209167D01*
X10097976Y-15199643D01*
X10126548Y-15199643D01*
X10145595Y-15209167D01*
X10155119Y-15218690D01*
X10164643Y-15237738D01*
X10164643Y-15294881D01*
X10155119Y-15313928D01*
X10145595Y-15323452D01*
X10126548Y-15332976D01*
X10097976Y-15332976D01*
X10278929Y-15332976D02*
X10259881Y-15323452D01*
X10250357Y-15304405D01*
X10250357Y-15132976D01*
X10431310Y-15323452D02*
X10412262Y-15332976D01*
X10374167Y-15332976D01*
X10355119Y-15323452D01*
X10345595Y-15304405D01*
X10345595Y-15228214D01*
X10355119Y-15209167D01*
X10374167Y-15199643D01*
X10412262Y-15199643D01*
X10431310Y-15209167D01*
X10440833Y-15228214D01*
X10440833Y-15247262D01*
X10345595Y-15266309D01*
X10517024Y-15323452D02*
X10536071Y-15332976D01*
X10574167Y-15332976D01*
X10593214Y-15323452D01*
X10602738Y-15304405D01*
X10602738Y-15294881D01*
X10593214Y-15275833D01*
X10574167Y-15266309D01*
X10545595Y-15266309D01*
X10526548Y-15256786D01*
X10517024Y-15237738D01*
X10517024Y-15228214D01*
X10526548Y-15209167D01*
X10545595Y-15199643D01*
X10574167Y-15199643D01*
X10593214Y-15209167D01*
X10669405Y-15409167D02*
X10678929Y-15399643D01*
X10697976Y-15371071D01*
X10707500Y-15352024D01*
X10717024Y-15323452D01*
X10726548Y-15275833D01*
X10726548Y-15237738D01*
X10717024Y-15190119D01*
X10707500Y-15161548D01*
X10697976Y-15142500D01*
X10678929Y-15113928D01*
X10669405Y-15104405D01*
X11031310Y-15409167D02*
X11021786Y-15399643D01*
X11002738Y-15371071D01*
X10993214Y-15352024D01*
X10983690Y-15323452D01*
X10974167Y-15275833D01*
X10974167Y-15237738D01*
X10983690Y-15190119D01*
X10993214Y-15161548D01*
X11002738Y-15142500D01*
X11021786Y-15113928D01*
X11031310Y-15104405D01*
X11107500Y-15199643D02*
X11107500Y-15332976D01*
X11107500Y-15218690D02*
X11117024Y-15209167D01*
X11136071Y-15199643D01*
X11164643Y-15199643D01*
X11183690Y-15209167D01*
X11193214Y-15228214D01*
X11193214Y-15332976D01*
X11317024Y-15332976D02*
X11297976Y-15323452D01*
X11288452Y-15313928D01*
X11278928Y-15294881D01*
X11278928Y-15237738D01*
X11288452Y-15218690D01*
X11297976Y-15209167D01*
X11317024Y-15199643D01*
X11345595Y-15199643D01*
X11364643Y-15209167D01*
X11374167Y-15218690D01*
X11383690Y-15237738D01*
X11383690Y-15294881D01*
X11374167Y-15313928D01*
X11364643Y-15323452D01*
X11345595Y-15332976D01*
X11317024Y-15332976D01*
X11440833Y-15199643D02*
X11517024Y-15199643D01*
X11469405Y-15132976D02*
X11469405Y-15304405D01*
X11478928Y-15323452D01*
X11497976Y-15332976D01*
X11517024Y-15332976D01*
X11736071Y-15199643D02*
X11736071Y-15399643D01*
X11736071Y-15209167D02*
X11755119Y-15199643D01*
X11793214Y-15199643D01*
X11812262Y-15209167D01*
X11821786Y-15218690D01*
X11831309Y-15237738D01*
X11831309Y-15294881D01*
X11821786Y-15313928D01*
X11812262Y-15323452D01*
X11793214Y-15332976D01*
X11755119Y-15332976D01*
X11736071Y-15323452D01*
X11945595Y-15332976D02*
X11926548Y-15323452D01*
X11917024Y-15304405D01*
X11917024Y-15132976D01*
X12107500Y-15332976D02*
X12107500Y-15228214D01*
X12097976Y-15209167D01*
X12078928Y-15199643D01*
X12040833Y-15199643D01*
X12021786Y-15209167D01*
X12107500Y-15323452D02*
X12088452Y-15332976D01*
X12040833Y-15332976D01*
X12021786Y-15323452D01*
X12012262Y-15304405D01*
X12012262Y-15285357D01*
X12021786Y-15266309D01*
X12040833Y-15256786D01*
X12088452Y-15256786D01*
X12107500Y-15247262D01*
X12174167Y-15199643D02*
X12250357Y-15199643D01*
X12202738Y-15132976D02*
X12202738Y-15304405D01*
X12212262Y-15323452D01*
X12231309Y-15332976D01*
X12250357Y-15332976D01*
X12393214Y-15323452D02*
X12374167Y-15332976D01*
X12336071Y-15332976D01*
X12317024Y-15323452D01*
X12307500Y-15304405D01*
X12307500Y-15228214D01*
X12317024Y-15209167D01*
X12336071Y-15199643D01*
X12374167Y-15199643D01*
X12393214Y-15209167D01*
X12402738Y-15228214D01*
X12402738Y-15247262D01*
X12307500Y-15266309D01*
X12574167Y-15332976D02*
X12574167Y-15132976D01*
X12574167Y-15323452D02*
X12555119Y-15332976D01*
X12517024Y-15332976D01*
X12497976Y-15323452D01*
X12488452Y-15313928D01*
X12478928Y-15294881D01*
X12478928Y-15237738D01*
X12488452Y-15218690D01*
X12497976Y-15209167D01*
X12517024Y-15199643D01*
X12555119Y-15199643D01*
X12574167Y-15209167D01*
X12650357Y-15409167D02*
X12659881Y-15399643D01*
X12678928Y-15371071D01*
X12688452Y-15352024D01*
X12697976Y-15323452D01*
X12707500Y-15275833D01*
X12707500Y-15237738D01*
X12697976Y-15190119D01*
X12688452Y-15161548D01*
X12678928Y-15142500D01*
X12659881Y-15113928D01*
X12650357Y-15104405D01*
M02*
