%TF.GenerationSoftware,KiCad,Pcbnew,(6.0.7)*%
%TF.CreationDate,2022-10-06T16:10:22+02:00*%
%TF.ProjectId,mobo,6d6f626f-2e6b-4696-9361-645f70636258,4A*%
%TF.SameCoordinates,Original*%
%TF.FileFunction,OtherDrawing,Comment*%
%FSLAX46Y46*%
G04 Gerber Fmt 4.6, Leading zero omitted, Abs format (unit mm)*
G04 Created by KiCad (PCBNEW (6.0.7)) date 2022-10-06 16:10:22*
%MOMM*%
%LPD*%
G01*
G04 APERTURE LIST*
%ADD10C,0.150000*%
%ADD11C,0.300000*%
G04 APERTURE END LIST*
D10*
X79080952Y-35752380D02*
X79080952Y-34752380D01*
X79652380Y-35752380D02*
X79223809Y-35180952D01*
X79652380Y-34752380D02*
X79080952Y-35323809D01*
X80080952Y-35752380D02*
X80080952Y-34752380D01*
X80557142Y-35752380D02*
X80557142Y-34752380D01*
X81128571Y-35752380D02*
X80700000Y-35180952D01*
X81128571Y-34752380D02*
X80557142Y-35323809D01*
X81557142Y-35752380D02*
X81557142Y-34752380D01*
X81890476Y-34752380D02*
X82461904Y-34752380D01*
X82176190Y-35752380D02*
X82176190Y-34752380D01*
X82795238Y-35657142D02*
X82842857Y-35704761D01*
X82795238Y-35752380D01*
X82747619Y-35704761D01*
X82795238Y-35657142D01*
X82795238Y-35752380D01*
X82795238Y-35133333D02*
X82842857Y-35180952D01*
X82795238Y-35228571D01*
X82747619Y-35180952D01*
X82795238Y-35133333D01*
X82795238Y-35228571D01*
X83938095Y-35085714D02*
X84128571Y-35752380D01*
X84319047Y-35276190D01*
X84509523Y-35752380D01*
X84700000Y-35085714D01*
X85080952Y-35752380D02*
X85080952Y-35085714D01*
X85080952Y-34752380D02*
X85033333Y-34800000D01*
X85080952Y-34847619D01*
X85128571Y-34800000D01*
X85080952Y-34752380D01*
X85080952Y-34847619D01*
X85985714Y-35752380D02*
X85985714Y-34752380D01*
X85985714Y-35704761D02*
X85890476Y-35752380D01*
X85700000Y-35752380D01*
X85604761Y-35704761D01*
X85557142Y-35657142D01*
X85509523Y-35561904D01*
X85509523Y-35276190D01*
X85557142Y-35180952D01*
X85604761Y-35133333D01*
X85700000Y-35085714D01*
X85890476Y-35085714D01*
X85985714Y-35133333D01*
X86319047Y-35085714D02*
X86700000Y-35085714D01*
X86461904Y-34752380D02*
X86461904Y-35609523D01*
X86509523Y-35704761D01*
X86604761Y-35752380D01*
X86700000Y-35752380D01*
X87033333Y-35752380D02*
X87033333Y-34752380D01*
X87461904Y-35752380D02*
X87461904Y-35228571D01*
X87414285Y-35133333D01*
X87319047Y-35085714D01*
X87176190Y-35085714D01*
X87080952Y-35133333D01*
X87033333Y-35180952D01*
X87938095Y-35657142D02*
X87985714Y-35704761D01*
X87938095Y-35752380D01*
X87890476Y-35704761D01*
X87938095Y-35657142D01*
X87938095Y-35752380D01*
X87938095Y-35133333D02*
X87985714Y-35180952D01*
X87938095Y-35228571D01*
X87890476Y-35180952D01*
X87938095Y-35133333D01*
X87938095Y-35228571D01*
X89080952Y-34752380D02*
X89700000Y-34752380D01*
X89366666Y-35133333D01*
X89509523Y-35133333D01*
X89604761Y-35180952D01*
X89652380Y-35228571D01*
X89700000Y-35323809D01*
X89700000Y-35561904D01*
X89652380Y-35657142D01*
X89604761Y-35704761D01*
X89509523Y-35752380D01*
X89223809Y-35752380D01*
X89128571Y-35704761D01*
X89080952Y-35657142D01*
X90128571Y-35752380D02*
X90128571Y-35085714D01*
X90128571Y-35180952D02*
X90176190Y-35133333D01*
X90271428Y-35085714D01*
X90414285Y-35085714D01*
X90509523Y-35133333D01*
X90557142Y-35228571D01*
X90557142Y-35752380D01*
X90557142Y-35228571D02*
X90604761Y-35133333D01*
X90700000Y-35085714D01*
X90842857Y-35085714D01*
X90938095Y-35133333D01*
X90985714Y-35228571D01*
X90985714Y-35752380D01*
X91461904Y-35752380D02*
X91461904Y-35085714D01*
X91461904Y-35180952D02*
X91509523Y-35133333D01*
X91604761Y-35085714D01*
X91747619Y-35085714D01*
X91842857Y-35133333D01*
X91890476Y-35228571D01*
X91890476Y-35752380D01*
X91890476Y-35228571D02*
X91938095Y-35133333D01*
X92033333Y-35085714D01*
X92176190Y-35085714D01*
X92271428Y-35133333D01*
X92319047Y-35228571D01*
X92319047Y-35752380D01*
X122280952Y-152252380D02*
X122280952Y-151252380D01*
X122852380Y-152252380D02*
X122423809Y-151680952D01*
X122852380Y-151252380D02*
X122280952Y-151823809D01*
X123280952Y-152252380D02*
X123280952Y-151252380D01*
X123757142Y-152252380D02*
X123757142Y-151252380D01*
X124328571Y-152252380D02*
X123900000Y-151680952D01*
X124328571Y-151252380D02*
X123757142Y-151823809D01*
X124757142Y-152252380D02*
X124757142Y-151252380D01*
X125090476Y-151252380D02*
X125661904Y-151252380D01*
X125376190Y-152252380D02*
X125376190Y-151252380D01*
X125995238Y-152157142D02*
X126042857Y-152204761D01*
X125995238Y-152252380D01*
X125947619Y-152204761D01*
X125995238Y-152157142D01*
X125995238Y-152252380D01*
X125995238Y-151633333D02*
X126042857Y-151680952D01*
X125995238Y-151728571D01*
X125947619Y-151680952D01*
X125995238Y-151633333D01*
X125995238Y-151728571D01*
X127138095Y-151585714D02*
X127328571Y-152252380D01*
X127519047Y-151776190D01*
X127709523Y-152252380D01*
X127900000Y-151585714D01*
X128280952Y-152252380D02*
X128280952Y-151585714D01*
X128280952Y-151252380D02*
X128233333Y-151300000D01*
X128280952Y-151347619D01*
X128328571Y-151300000D01*
X128280952Y-151252380D01*
X128280952Y-151347619D01*
X129185714Y-152252380D02*
X129185714Y-151252380D01*
X129185714Y-152204761D02*
X129090476Y-152252380D01*
X128900000Y-152252380D01*
X128804761Y-152204761D01*
X128757142Y-152157142D01*
X128709523Y-152061904D01*
X128709523Y-151776190D01*
X128757142Y-151680952D01*
X128804761Y-151633333D01*
X128900000Y-151585714D01*
X129090476Y-151585714D01*
X129185714Y-151633333D01*
X129519047Y-151585714D02*
X129900000Y-151585714D01*
X129661904Y-151252380D02*
X129661904Y-152109523D01*
X129709523Y-152204761D01*
X129804761Y-152252380D01*
X129900000Y-152252380D01*
X130233333Y-152252380D02*
X130233333Y-151252380D01*
X130661904Y-152252380D02*
X130661904Y-151728571D01*
X130614285Y-151633333D01*
X130519047Y-151585714D01*
X130376190Y-151585714D01*
X130280952Y-151633333D01*
X130233333Y-151680952D01*
X131138095Y-152157142D02*
X131185714Y-152204761D01*
X131138095Y-152252380D01*
X131090476Y-152204761D01*
X131138095Y-152157142D01*
X131138095Y-152252380D01*
X131138095Y-151633333D02*
X131185714Y-151680952D01*
X131138095Y-151728571D01*
X131090476Y-151680952D01*
X131138095Y-151633333D01*
X131138095Y-151728571D01*
X132280952Y-151252380D02*
X132900000Y-151252380D01*
X132566666Y-151633333D01*
X132709523Y-151633333D01*
X132804761Y-151680952D01*
X132852380Y-151728571D01*
X132900000Y-151823809D01*
X132900000Y-152061904D01*
X132852380Y-152157142D01*
X132804761Y-152204761D01*
X132709523Y-152252380D01*
X132423809Y-152252380D01*
X132328571Y-152204761D01*
X132280952Y-152157142D01*
X133328571Y-152252380D02*
X133328571Y-151585714D01*
X133328571Y-151680952D02*
X133376190Y-151633333D01*
X133471428Y-151585714D01*
X133614285Y-151585714D01*
X133709523Y-151633333D01*
X133757142Y-151728571D01*
X133757142Y-152252380D01*
X133757142Y-151728571D02*
X133804761Y-151633333D01*
X133900000Y-151585714D01*
X134042857Y-151585714D01*
X134138095Y-151633333D01*
X134185714Y-151728571D01*
X134185714Y-152252380D01*
X134661904Y-152252380D02*
X134661904Y-151585714D01*
X134661904Y-151680952D02*
X134709523Y-151633333D01*
X134804761Y-151585714D01*
X134947619Y-151585714D01*
X135042857Y-151633333D01*
X135090476Y-151728571D01*
X135090476Y-152252380D01*
X135090476Y-151728571D02*
X135138095Y-151633333D01*
X135233333Y-151585714D01*
X135376190Y-151585714D01*
X135471428Y-151633333D01*
X135519047Y-151728571D01*
X135519047Y-152252380D01*
X77380952Y-152152380D02*
X77380952Y-151152380D01*
X77952380Y-152152380D02*
X77523809Y-151580952D01*
X77952380Y-151152380D02*
X77380952Y-151723809D01*
X78380952Y-152152380D02*
X78380952Y-151152380D01*
X78857142Y-152152380D02*
X78857142Y-151152380D01*
X79428571Y-152152380D02*
X79000000Y-151580952D01*
X79428571Y-151152380D02*
X78857142Y-151723809D01*
X79857142Y-152152380D02*
X79857142Y-151152380D01*
X80190476Y-151152380D02*
X80761904Y-151152380D01*
X80476190Y-152152380D02*
X80476190Y-151152380D01*
X81095238Y-152057142D02*
X81142857Y-152104761D01*
X81095238Y-152152380D01*
X81047619Y-152104761D01*
X81095238Y-152057142D01*
X81095238Y-152152380D01*
X81095238Y-151533333D02*
X81142857Y-151580952D01*
X81095238Y-151628571D01*
X81047619Y-151580952D01*
X81095238Y-151533333D01*
X81095238Y-151628571D01*
X82238095Y-151485714D02*
X82428571Y-152152380D01*
X82619047Y-151676190D01*
X82809523Y-152152380D01*
X83000000Y-151485714D01*
X83380952Y-152152380D02*
X83380952Y-151485714D01*
X83380952Y-151152380D02*
X83333333Y-151200000D01*
X83380952Y-151247619D01*
X83428571Y-151200000D01*
X83380952Y-151152380D01*
X83380952Y-151247619D01*
X84285714Y-152152380D02*
X84285714Y-151152380D01*
X84285714Y-152104761D02*
X84190476Y-152152380D01*
X84000000Y-152152380D01*
X83904761Y-152104761D01*
X83857142Y-152057142D01*
X83809523Y-151961904D01*
X83809523Y-151676190D01*
X83857142Y-151580952D01*
X83904761Y-151533333D01*
X84000000Y-151485714D01*
X84190476Y-151485714D01*
X84285714Y-151533333D01*
X84619047Y-151485714D02*
X85000000Y-151485714D01*
X84761904Y-151152380D02*
X84761904Y-152009523D01*
X84809523Y-152104761D01*
X84904761Y-152152380D01*
X85000000Y-152152380D01*
X85333333Y-152152380D02*
X85333333Y-151152380D01*
X85761904Y-152152380D02*
X85761904Y-151628571D01*
X85714285Y-151533333D01*
X85619047Y-151485714D01*
X85476190Y-151485714D01*
X85380952Y-151533333D01*
X85333333Y-151580952D01*
X86238095Y-152057142D02*
X86285714Y-152104761D01*
X86238095Y-152152380D01*
X86190476Y-152104761D01*
X86238095Y-152057142D01*
X86238095Y-152152380D01*
X86238095Y-151533333D02*
X86285714Y-151580952D01*
X86238095Y-151628571D01*
X86190476Y-151580952D01*
X86238095Y-151533333D01*
X86238095Y-151628571D01*
X87380952Y-151152380D02*
X88000000Y-151152380D01*
X87666666Y-151533333D01*
X87809523Y-151533333D01*
X87904761Y-151580952D01*
X87952380Y-151628571D01*
X88000000Y-151723809D01*
X88000000Y-151961904D01*
X87952380Y-152057142D01*
X87904761Y-152104761D01*
X87809523Y-152152380D01*
X87523809Y-152152380D01*
X87428571Y-152104761D01*
X87380952Y-152057142D01*
X88428571Y-152152380D02*
X88428571Y-151485714D01*
X88428571Y-151580952D02*
X88476190Y-151533333D01*
X88571428Y-151485714D01*
X88714285Y-151485714D01*
X88809523Y-151533333D01*
X88857142Y-151628571D01*
X88857142Y-152152380D01*
X88857142Y-151628571D02*
X88904761Y-151533333D01*
X89000000Y-151485714D01*
X89142857Y-151485714D01*
X89238095Y-151533333D01*
X89285714Y-151628571D01*
X89285714Y-152152380D01*
X89761904Y-152152380D02*
X89761904Y-151485714D01*
X89761904Y-151580952D02*
X89809523Y-151533333D01*
X89904761Y-151485714D01*
X90047619Y-151485714D01*
X90142857Y-151533333D01*
X90190476Y-151628571D01*
X90190476Y-152152380D01*
X90190476Y-151628571D02*
X90238095Y-151533333D01*
X90333333Y-151485714D01*
X90476190Y-151485714D01*
X90571428Y-151533333D01*
X90619047Y-151628571D01*
X90619047Y-152152380D01*
X170202380Y-132119047D02*
X169202380Y-132119047D01*
X170202380Y-131547619D02*
X169630952Y-131976190D01*
X169202380Y-131547619D02*
X169773809Y-132119047D01*
X170202380Y-131119047D02*
X169202380Y-131119047D01*
X170202380Y-130642857D02*
X169202380Y-130642857D01*
X170202380Y-130071428D02*
X169630952Y-130500000D01*
X169202380Y-130071428D02*
X169773809Y-130642857D01*
X170202380Y-129642857D02*
X169202380Y-129642857D01*
X169202380Y-129309523D02*
X169202380Y-128738095D01*
X170202380Y-129023809D02*
X169202380Y-129023809D01*
X170107142Y-128404761D02*
X170154761Y-128357142D01*
X170202380Y-128404761D01*
X170154761Y-128452380D01*
X170107142Y-128404761D01*
X170202380Y-128404761D01*
X169583333Y-128404761D02*
X169630952Y-128357142D01*
X169678571Y-128404761D01*
X169630952Y-128452380D01*
X169583333Y-128404761D01*
X169678571Y-128404761D01*
X169535714Y-127261904D02*
X170202380Y-127071428D01*
X169726190Y-126880952D01*
X170202380Y-126690476D01*
X169535714Y-126500000D01*
X170202380Y-126119047D02*
X169535714Y-126119047D01*
X169202380Y-126119047D02*
X169250000Y-126166666D01*
X169297619Y-126119047D01*
X169250000Y-126071428D01*
X169202380Y-126119047D01*
X169297619Y-126119047D01*
X170202380Y-125214285D02*
X169202380Y-125214285D01*
X170154761Y-125214285D02*
X170202380Y-125309523D01*
X170202380Y-125500000D01*
X170154761Y-125595238D01*
X170107142Y-125642857D01*
X170011904Y-125690476D01*
X169726190Y-125690476D01*
X169630952Y-125642857D01*
X169583333Y-125595238D01*
X169535714Y-125500000D01*
X169535714Y-125309523D01*
X169583333Y-125214285D01*
X169535714Y-124880952D02*
X169535714Y-124500000D01*
X169202380Y-124738095D02*
X170059523Y-124738095D01*
X170154761Y-124690476D01*
X170202380Y-124595238D01*
X170202380Y-124500000D01*
X170202380Y-124166666D02*
X169202380Y-124166666D01*
X170202380Y-123738095D02*
X169678571Y-123738095D01*
X169583333Y-123785714D01*
X169535714Y-123880952D01*
X169535714Y-124023809D01*
X169583333Y-124119047D01*
X169630952Y-124166666D01*
X170107142Y-123261904D02*
X170154761Y-123214285D01*
X170202380Y-123261904D01*
X170154761Y-123309523D01*
X170107142Y-123261904D01*
X170202380Y-123261904D01*
X169583333Y-123261904D02*
X169630952Y-123214285D01*
X169678571Y-123261904D01*
X169630952Y-123309523D01*
X169583333Y-123261904D01*
X169678571Y-123261904D01*
X169202380Y-122119047D02*
X169202380Y-121500000D01*
X169583333Y-121833333D01*
X169583333Y-121690476D01*
X169630952Y-121595238D01*
X169678571Y-121547619D01*
X169773809Y-121500000D01*
X170011904Y-121500000D01*
X170107142Y-121547619D01*
X170154761Y-121595238D01*
X170202380Y-121690476D01*
X170202380Y-121976190D01*
X170154761Y-122071428D01*
X170107142Y-122119047D01*
X170202380Y-121071428D02*
X169535714Y-121071428D01*
X169630952Y-121071428D02*
X169583333Y-121023809D01*
X169535714Y-120928571D01*
X169535714Y-120785714D01*
X169583333Y-120690476D01*
X169678571Y-120642857D01*
X170202380Y-120642857D01*
X169678571Y-120642857D02*
X169583333Y-120595238D01*
X169535714Y-120500000D01*
X169535714Y-120357142D01*
X169583333Y-120261904D01*
X169678571Y-120214285D01*
X170202380Y-120214285D01*
X170202380Y-119738095D02*
X169535714Y-119738095D01*
X169630952Y-119738095D02*
X169583333Y-119690476D01*
X169535714Y-119595238D01*
X169535714Y-119452380D01*
X169583333Y-119357142D01*
X169678571Y-119309523D01*
X170202380Y-119309523D01*
X169678571Y-119309523D02*
X169583333Y-119261904D01*
X169535714Y-119166666D01*
X169535714Y-119023809D01*
X169583333Y-118928571D01*
X169678571Y-118880952D01*
X170202380Y-118880952D01*
X53752380Y-132119047D02*
X52752380Y-132119047D01*
X53752380Y-131547619D02*
X53180952Y-131976190D01*
X52752380Y-131547619D02*
X53323809Y-132119047D01*
X53752380Y-131119047D02*
X52752380Y-131119047D01*
X53752380Y-130642857D02*
X52752380Y-130642857D01*
X53752380Y-130071428D02*
X53180952Y-130500000D01*
X52752380Y-130071428D02*
X53323809Y-130642857D01*
X53752380Y-129642857D02*
X52752380Y-129642857D01*
X52752380Y-129309523D02*
X52752380Y-128738095D01*
X53752380Y-129023809D02*
X52752380Y-129023809D01*
X53657142Y-128404761D02*
X53704761Y-128357142D01*
X53752380Y-128404761D01*
X53704761Y-128452380D01*
X53657142Y-128404761D01*
X53752380Y-128404761D01*
X53133333Y-128404761D02*
X53180952Y-128357142D01*
X53228571Y-128404761D01*
X53180952Y-128452380D01*
X53133333Y-128404761D01*
X53228571Y-128404761D01*
X53085714Y-127261904D02*
X53752380Y-127071428D01*
X53276190Y-126880952D01*
X53752380Y-126690476D01*
X53085714Y-126500000D01*
X53752380Y-126119047D02*
X53085714Y-126119047D01*
X52752380Y-126119047D02*
X52800000Y-126166666D01*
X52847619Y-126119047D01*
X52800000Y-126071428D01*
X52752380Y-126119047D01*
X52847619Y-126119047D01*
X53752380Y-125214285D02*
X52752380Y-125214285D01*
X53704761Y-125214285D02*
X53752380Y-125309523D01*
X53752380Y-125500000D01*
X53704761Y-125595238D01*
X53657142Y-125642857D01*
X53561904Y-125690476D01*
X53276190Y-125690476D01*
X53180952Y-125642857D01*
X53133333Y-125595238D01*
X53085714Y-125500000D01*
X53085714Y-125309523D01*
X53133333Y-125214285D01*
X53085714Y-124880952D02*
X53085714Y-124500000D01*
X52752380Y-124738095D02*
X53609523Y-124738095D01*
X53704761Y-124690476D01*
X53752380Y-124595238D01*
X53752380Y-124500000D01*
X53752380Y-124166666D02*
X52752380Y-124166666D01*
X53752380Y-123738095D02*
X53228571Y-123738095D01*
X53133333Y-123785714D01*
X53085714Y-123880952D01*
X53085714Y-124023809D01*
X53133333Y-124119047D01*
X53180952Y-124166666D01*
X53657142Y-123261904D02*
X53704761Y-123214285D01*
X53752380Y-123261904D01*
X53704761Y-123309523D01*
X53657142Y-123261904D01*
X53752380Y-123261904D01*
X53133333Y-123261904D02*
X53180952Y-123214285D01*
X53228571Y-123261904D01*
X53180952Y-123309523D01*
X53133333Y-123261904D01*
X53228571Y-123261904D01*
X52752380Y-122119047D02*
X52752380Y-121500000D01*
X53133333Y-121833333D01*
X53133333Y-121690476D01*
X53180952Y-121595238D01*
X53228571Y-121547619D01*
X53323809Y-121500000D01*
X53561904Y-121500000D01*
X53657142Y-121547619D01*
X53704761Y-121595238D01*
X53752380Y-121690476D01*
X53752380Y-121976190D01*
X53704761Y-122071428D01*
X53657142Y-122119047D01*
X53752380Y-121071428D02*
X53085714Y-121071428D01*
X53180952Y-121071428D02*
X53133333Y-121023809D01*
X53085714Y-120928571D01*
X53085714Y-120785714D01*
X53133333Y-120690476D01*
X53228571Y-120642857D01*
X53752380Y-120642857D01*
X53228571Y-120642857D02*
X53133333Y-120595238D01*
X53085714Y-120500000D01*
X53085714Y-120357142D01*
X53133333Y-120261904D01*
X53228571Y-120214285D01*
X53752380Y-120214285D01*
X53752380Y-119738095D02*
X53085714Y-119738095D01*
X53180952Y-119738095D02*
X53133333Y-119690476D01*
X53085714Y-119595238D01*
X53085714Y-119452380D01*
X53133333Y-119357142D01*
X53228571Y-119309523D01*
X53752380Y-119309523D01*
X53228571Y-119309523D02*
X53133333Y-119261904D01*
X53085714Y-119166666D01*
X53085714Y-119023809D01*
X53133333Y-118928571D01*
X53228571Y-118880952D01*
X53752380Y-118880952D01*
X53702380Y-78619047D02*
X52702380Y-78619047D01*
X53702380Y-78047619D02*
X53130952Y-78476190D01*
X52702380Y-78047619D02*
X53273809Y-78619047D01*
X53702380Y-77619047D02*
X52702380Y-77619047D01*
X53702380Y-77142857D02*
X52702380Y-77142857D01*
X53702380Y-76571428D02*
X53130952Y-77000000D01*
X52702380Y-76571428D02*
X53273809Y-77142857D01*
X53702380Y-76142857D02*
X52702380Y-76142857D01*
X52702380Y-75809523D02*
X52702380Y-75238095D01*
X53702380Y-75523809D02*
X52702380Y-75523809D01*
X53607142Y-74904761D02*
X53654761Y-74857142D01*
X53702380Y-74904761D01*
X53654761Y-74952380D01*
X53607142Y-74904761D01*
X53702380Y-74904761D01*
X53083333Y-74904761D02*
X53130952Y-74857142D01*
X53178571Y-74904761D01*
X53130952Y-74952380D01*
X53083333Y-74904761D01*
X53178571Y-74904761D01*
X53035714Y-73761904D02*
X53702380Y-73571428D01*
X53226190Y-73380952D01*
X53702380Y-73190476D01*
X53035714Y-73000000D01*
X53702380Y-72619047D02*
X53035714Y-72619047D01*
X52702380Y-72619047D02*
X52750000Y-72666666D01*
X52797619Y-72619047D01*
X52750000Y-72571428D01*
X52702380Y-72619047D01*
X52797619Y-72619047D01*
X53702380Y-71714285D02*
X52702380Y-71714285D01*
X53654761Y-71714285D02*
X53702380Y-71809523D01*
X53702380Y-72000000D01*
X53654761Y-72095238D01*
X53607142Y-72142857D01*
X53511904Y-72190476D01*
X53226190Y-72190476D01*
X53130952Y-72142857D01*
X53083333Y-72095238D01*
X53035714Y-72000000D01*
X53035714Y-71809523D01*
X53083333Y-71714285D01*
X53035714Y-71380952D02*
X53035714Y-71000000D01*
X52702380Y-71238095D02*
X53559523Y-71238095D01*
X53654761Y-71190476D01*
X53702380Y-71095238D01*
X53702380Y-71000000D01*
X53702380Y-70666666D02*
X52702380Y-70666666D01*
X53702380Y-70238095D02*
X53178571Y-70238095D01*
X53083333Y-70285714D01*
X53035714Y-70380952D01*
X53035714Y-70523809D01*
X53083333Y-70619047D01*
X53130952Y-70666666D01*
X53607142Y-69761904D02*
X53654761Y-69714285D01*
X53702380Y-69761904D01*
X53654761Y-69809523D01*
X53607142Y-69761904D01*
X53702380Y-69761904D01*
X53083333Y-69761904D02*
X53130952Y-69714285D01*
X53178571Y-69761904D01*
X53130952Y-69809523D01*
X53083333Y-69761904D01*
X53178571Y-69761904D01*
X52702380Y-68619047D02*
X52702380Y-68000000D01*
X53083333Y-68333333D01*
X53083333Y-68190476D01*
X53130952Y-68095238D01*
X53178571Y-68047619D01*
X53273809Y-68000000D01*
X53511904Y-68000000D01*
X53607142Y-68047619D01*
X53654761Y-68095238D01*
X53702380Y-68190476D01*
X53702380Y-68476190D01*
X53654761Y-68571428D01*
X53607142Y-68619047D01*
X53702380Y-67571428D02*
X53035714Y-67571428D01*
X53130952Y-67571428D02*
X53083333Y-67523809D01*
X53035714Y-67428571D01*
X53035714Y-67285714D01*
X53083333Y-67190476D01*
X53178571Y-67142857D01*
X53702380Y-67142857D01*
X53178571Y-67142857D02*
X53083333Y-67095238D01*
X53035714Y-67000000D01*
X53035714Y-66857142D01*
X53083333Y-66761904D01*
X53178571Y-66714285D01*
X53702380Y-66714285D01*
X53702380Y-66238095D02*
X53035714Y-66238095D01*
X53130952Y-66238095D02*
X53083333Y-66190476D01*
X53035714Y-66095238D01*
X53035714Y-65952380D01*
X53083333Y-65857142D01*
X53178571Y-65809523D01*
X53702380Y-65809523D01*
X53178571Y-65809523D02*
X53083333Y-65761904D01*
X53035714Y-65666666D01*
X53035714Y-65523809D01*
X53083333Y-65428571D01*
X53178571Y-65380952D01*
X53702380Y-65380952D01*
X115880952Y-35752380D02*
X115880952Y-34752380D01*
X116452380Y-35752380D02*
X116023809Y-35180952D01*
X116452380Y-34752380D02*
X115880952Y-35323809D01*
X116880952Y-35752380D02*
X116880952Y-34752380D01*
X117357142Y-35752380D02*
X117357142Y-34752380D01*
X117928571Y-35752380D02*
X117500000Y-35180952D01*
X117928571Y-34752380D02*
X117357142Y-35323809D01*
X118357142Y-35752380D02*
X118357142Y-34752380D01*
X118690476Y-34752380D02*
X119261904Y-34752380D01*
X118976190Y-35752380D02*
X118976190Y-34752380D01*
X119595238Y-35657142D02*
X119642857Y-35704761D01*
X119595238Y-35752380D01*
X119547619Y-35704761D01*
X119595238Y-35657142D01*
X119595238Y-35752380D01*
X119595238Y-35133333D02*
X119642857Y-35180952D01*
X119595238Y-35228571D01*
X119547619Y-35180952D01*
X119595238Y-35133333D01*
X119595238Y-35228571D01*
X120738095Y-35085714D02*
X120928571Y-35752380D01*
X121119047Y-35276190D01*
X121309523Y-35752380D01*
X121500000Y-35085714D01*
X121880952Y-35752380D02*
X121880952Y-35085714D01*
X121880952Y-34752380D02*
X121833333Y-34800000D01*
X121880952Y-34847619D01*
X121928571Y-34800000D01*
X121880952Y-34752380D01*
X121880952Y-34847619D01*
X122785714Y-35752380D02*
X122785714Y-34752380D01*
X122785714Y-35704761D02*
X122690476Y-35752380D01*
X122500000Y-35752380D01*
X122404761Y-35704761D01*
X122357142Y-35657142D01*
X122309523Y-35561904D01*
X122309523Y-35276190D01*
X122357142Y-35180952D01*
X122404761Y-35133333D01*
X122500000Y-35085714D01*
X122690476Y-35085714D01*
X122785714Y-35133333D01*
X123119047Y-35085714D02*
X123500000Y-35085714D01*
X123261904Y-34752380D02*
X123261904Y-35609523D01*
X123309523Y-35704761D01*
X123404761Y-35752380D01*
X123500000Y-35752380D01*
X123833333Y-35752380D02*
X123833333Y-34752380D01*
X124261904Y-35752380D02*
X124261904Y-35228571D01*
X124214285Y-35133333D01*
X124119047Y-35085714D01*
X123976190Y-35085714D01*
X123880952Y-35133333D01*
X123833333Y-35180952D01*
X124738095Y-35657142D02*
X124785714Y-35704761D01*
X124738095Y-35752380D01*
X124690476Y-35704761D01*
X124738095Y-35657142D01*
X124738095Y-35752380D01*
X124738095Y-35133333D02*
X124785714Y-35180952D01*
X124738095Y-35228571D01*
X124690476Y-35180952D01*
X124738095Y-35133333D01*
X124738095Y-35228571D01*
X125880952Y-34752380D02*
X126500000Y-34752380D01*
X126166666Y-35133333D01*
X126309523Y-35133333D01*
X126404761Y-35180952D01*
X126452380Y-35228571D01*
X126500000Y-35323809D01*
X126500000Y-35561904D01*
X126452380Y-35657142D01*
X126404761Y-35704761D01*
X126309523Y-35752380D01*
X126023809Y-35752380D01*
X125928571Y-35704761D01*
X125880952Y-35657142D01*
X126928571Y-35752380D02*
X126928571Y-35085714D01*
X126928571Y-35180952D02*
X126976190Y-35133333D01*
X127071428Y-35085714D01*
X127214285Y-35085714D01*
X127309523Y-35133333D01*
X127357142Y-35228571D01*
X127357142Y-35752380D01*
X127357142Y-35228571D02*
X127404761Y-35133333D01*
X127500000Y-35085714D01*
X127642857Y-35085714D01*
X127738095Y-35133333D01*
X127785714Y-35228571D01*
X127785714Y-35752380D01*
X128261904Y-35752380D02*
X128261904Y-35085714D01*
X128261904Y-35180952D02*
X128309523Y-35133333D01*
X128404761Y-35085714D01*
X128547619Y-35085714D01*
X128642857Y-35133333D01*
X128690476Y-35228571D01*
X128690476Y-35752380D01*
X128690476Y-35228571D02*
X128738095Y-35133333D01*
X128833333Y-35085714D01*
X128976190Y-35085714D01*
X129071428Y-35133333D01*
X129119047Y-35228571D01*
X129119047Y-35752380D01*
X170152380Y-78619047D02*
X169152380Y-78619047D01*
X170152380Y-78047619D02*
X169580952Y-78476190D01*
X169152380Y-78047619D02*
X169723809Y-78619047D01*
X170152380Y-77619047D02*
X169152380Y-77619047D01*
X170152380Y-77142857D02*
X169152380Y-77142857D01*
X170152380Y-76571428D02*
X169580952Y-77000000D01*
X169152380Y-76571428D02*
X169723809Y-77142857D01*
X170152380Y-76142857D02*
X169152380Y-76142857D01*
X169152380Y-75809523D02*
X169152380Y-75238095D01*
X170152380Y-75523809D02*
X169152380Y-75523809D01*
X170057142Y-74904761D02*
X170104761Y-74857142D01*
X170152380Y-74904761D01*
X170104761Y-74952380D01*
X170057142Y-74904761D01*
X170152380Y-74904761D01*
X169533333Y-74904761D02*
X169580952Y-74857142D01*
X169628571Y-74904761D01*
X169580952Y-74952380D01*
X169533333Y-74904761D01*
X169628571Y-74904761D01*
X169485714Y-73761904D02*
X170152380Y-73571428D01*
X169676190Y-73380952D01*
X170152380Y-73190476D01*
X169485714Y-73000000D01*
X170152380Y-72619047D02*
X169485714Y-72619047D01*
X169152380Y-72619047D02*
X169200000Y-72666666D01*
X169247619Y-72619047D01*
X169200000Y-72571428D01*
X169152380Y-72619047D01*
X169247619Y-72619047D01*
X170152380Y-71714285D02*
X169152380Y-71714285D01*
X170104761Y-71714285D02*
X170152380Y-71809523D01*
X170152380Y-72000000D01*
X170104761Y-72095238D01*
X170057142Y-72142857D01*
X169961904Y-72190476D01*
X169676190Y-72190476D01*
X169580952Y-72142857D01*
X169533333Y-72095238D01*
X169485714Y-72000000D01*
X169485714Y-71809523D01*
X169533333Y-71714285D01*
X169485714Y-71380952D02*
X169485714Y-71000000D01*
X169152380Y-71238095D02*
X170009523Y-71238095D01*
X170104761Y-71190476D01*
X170152380Y-71095238D01*
X170152380Y-71000000D01*
X170152380Y-70666666D02*
X169152380Y-70666666D01*
X170152380Y-70238095D02*
X169628571Y-70238095D01*
X169533333Y-70285714D01*
X169485714Y-70380952D01*
X169485714Y-70523809D01*
X169533333Y-70619047D01*
X169580952Y-70666666D01*
X170057142Y-69761904D02*
X170104761Y-69714285D01*
X170152380Y-69761904D01*
X170104761Y-69809523D01*
X170057142Y-69761904D01*
X170152380Y-69761904D01*
X169533333Y-69761904D02*
X169580952Y-69714285D01*
X169628571Y-69761904D01*
X169580952Y-69809523D01*
X169533333Y-69761904D01*
X169628571Y-69761904D01*
X169152380Y-68619047D02*
X169152380Y-68000000D01*
X169533333Y-68333333D01*
X169533333Y-68190476D01*
X169580952Y-68095238D01*
X169628571Y-68047619D01*
X169723809Y-68000000D01*
X169961904Y-68000000D01*
X170057142Y-68047619D01*
X170104761Y-68095238D01*
X170152380Y-68190476D01*
X170152380Y-68476190D01*
X170104761Y-68571428D01*
X170057142Y-68619047D01*
X170152380Y-67571428D02*
X169485714Y-67571428D01*
X169580952Y-67571428D02*
X169533333Y-67523809D01*
X169485714Y-67428571D01*
X169485714Y-67285714D01*
X169533333Y-67190476D01*
X169628571Y-67142857D01*
X170152380Y-67142857D01*
X169628571Y-67142857D02*
X169533333Y-67095238D01*
X169485714Y-67000000D01*
X169485714Y-66857142D01*
X169533333Y-66761904D01*
X169628571Y-66714285D01*
X170152380Y-66714285D01*
X170152380Y-66238095D02*
X169485714Y-66238095D01*
X169580952Y-66238095D02*
X169533333Y-66190476D01*
X169485714Y-66095238D01*
X169485714Y-65952380D01*
X169533333Y-65857142D01*
X169628571Y-65809523D01*
X170152380Y-65809523D01*
X169628571Y-65809523D02*
X169533333Y-65761904D01*
X169485714Y-65666666D01*
X169485714Y-65523809D01*
X169533333Y-65428571D01*
X169628571Y-65380952D01*
X170152380Y-65380952D01*
D11*
X85700000Y-41050000D02*
X84700000Y-40050000D01*
X85700000Y-41050000D02*
X85700000Y-38050000D01*
X85700000Y-41050000D02*
X86700000Y-40050000D01*
X84700000Y-41050000D02*
X86700000Y-41050000D01*
X128900000Y-146050000D02*
X128900000Y-149050000D01*
X128900000Y-146050000D02*
X127900000Y-147050000D01*
X128900000Y-146050000D02*
X129900000Y-147050000D01*
X129900000Y-146050000D02*
X127900000Y-146050000D01*
X85000000Y-145950000D02*
X83000000Y-145950000D01*
X84000000Y-145950000D02*
X84000000Y-148950000D01*
X84000000Y-145950000D02*
X85000000Y-146950000D01*
X84000000Y-145950000D02*
X83000000Y-146950000D01*
X164000000Y-125500000D02*
X165000000Y-126500000D01*
X164000000Y-125500000D02*
X165000000Y-124500000D01*
X164000000Y-124500000D02*
X164000000Y-126500000D01*
X164000000Y-125500000D02*
X167000000Y-125500000D01*
X59050000Y-125500000D02*
X58050000Y-126500000D01*
X59050000Y-125500000D02*
X56050000Y-125500000D01*
X59050000Y-126500000D02*
X59050000Y-124500000D01*
X59050000Y-125500000D02*
X58050000Y-124500000D01*
X59000000Y-72000000D02*
X58000000Y-71000000D01*
X59000000Y-72000000D02*
X58000000Y-73000000D01*
X59000000Y-73000000D02*
X59000000Y-71000000D01*
X59000000Y-72000000D02*
X56000000Y-72000000D01*
X122500000Y-41050000D02*
X121500000Y-40050000D01*
X122500000Y-41050000D02*
X122500000Y-38050000D01*
X122500000Y-41050000D02*
X123500000Y-40050000D01*
X121500000Y-41050000D02*
X123500000Y-41050000D01*
X163950000Y-72000000D02*
X166950000Y-72000000D01*
X163950000Y-72000000D02*
X164950000Y-71000000D01*
X163950000Y-72000000D02*
X164950000Y-73000000D01*
X163950000Y-71000000D02*
X163950000Y-73000000D01*
M02*
